<svg width="24" height="24" viewBox="0 0 24 24" fill="none" xmlns="http://www.w3.org/2000/svg">
    <path fill-rule="evenodd" clip-rule="evenodd" d="M2 12C2 17.52 6.47 22 12 22C17.52 22 22 17.52 22 12C22 6.47 17.52 2 12 2C6.47 2 2 6.47 2 12ZM4 12C4 7.58 7.58 4 12 4C16.41 4 20 7.58 20 12C20 16.41 16.41 20 12 20C7.58 20 4 16.41 4 12ZM7.06027 11.6405C7.11039 11.511 7.18596 11.3936 7.28109 11.2985C7.2937 11.2855 7.30657 11.273 7.31968 11.2609L11.2813 7.29927C11.6813 6.89927 12.3113 6.89927 12.7013 7.29827C13.1013 7.68827 13.1013 8.31827 12.7023 8.71827L10.4117 11.0089H15.9912C16.5512 11.0089 16.9912 11.4489 16.9912 12.0089C16.9912 12.5589 16.5512 13.0089 15.9912 13.0089H10.4315L12.7111 15.2885C13.1111 15.6785 13.1111 16.3085 12.7121 16.7085C12.3221 17.0985 11.6921 17.0985 11.2921 16.7085L7.39124 12.8076C7.1487 12.6247 6.99119 12.3343 6.99119 12.0089C6.99119 12.0087 6.99119 12.0085 6.99119 12.0084L6.99109 12.0085C6.99109 11.9785 6.99244 11.9486 6.9951 11.9189C7.00366 11.8211 7.02605 11.7277 7.06027 11.6405Z" fill="#2E90FA"/>
</svg>