<svg width="24" height="24" viewBox="0 0 24 24" fill="none" xmlns="http://www.w3.org/2000/svg">
    <path fill-rule="evenodd" clip-rule="evenodd" d="M2 12C2 17.52 6.47 22 12 22C17.52 22 22 17.52 22 12C22 6.47 17.52 2 12 2C6.47 2 2 6.47 2 12ZM4 12C4 7.58 7.58 4 12 4C16.41 4 20 7.58 20 12C20 16.41 16.41 20 12 20C7.58 20 4 16.41 4 12ZM16.9906 11.992L16.9908 11.9918C16.9908 12.2618 16.8808 12.5218 16.7008 12.7018C16.6882 12.7147 16.6753 12.7272 16.6622 12.7393L12.7006 16.701C12.3006 17.101 11.6706 17.101 11.2806 16.702C10.8806 16.312 10.8806 15.682 11.2796 15.282L13.5702 12.9913L7.99023 12.9913C7.43023 12.9913 6.99023 12.5513 6.99023 11.9913C6.99023 11.4413 7.43023 10.9913 7.99023 10.9913L13.5504 10.9913L11.2708 8.71177C10.8708 8.32177 10.8708 7.69177 11.2698 7.29177C11.6598 6.90177 12.2898 6.90177 12.6898 7.29177L16.5922 11.1941C16.8336 11.3771 16.9902 11.6668 16.9902 11.9913L16.9906 11.991C16.9906 11.9913 16.9906 11.9916 16.9906 11.992Z" fill="#2E90FA"/>
</svg>